<svg width="800" height="771" viewBox="0 0 800 771" fill="none" xmlns="http://www.w3.org/2000/svg">
<path d="M421.5 107.5L389.5 411.5V713M214.5 92L225.5 361.5L255.5 649.5" stroke="black" stroke-width="10" stroke-linecap="round" stroke-linejoin="round" fill="none"/>
<path d="M411 167L219 140L227 275L396.5 313.5L411 167Z" stroke="black" stroke-width="10" stroke-linecap="round" stroke-linejoin="round" fill="none"/>
<path d="M400.5 291C338.407 276.746 284.093 266.254 222 252M400.5 270L222 232M400.5 246.5L222 211.5M400.5 224.5L222 191.5M402.5 202L222 171M310.5 157.5L306 288.5" stroke="black" stroke-width="10" stroke-linecap="round" stroke-linejoin="round" fill="none"/>
<path d="M536.002 321L575.502 300C575.502 300 575.502 270.5 568.002 272C560.502 273.5 543.002 279.5 536.002 285.5C529.002 291.5 536.002 321 536.002 321Z" stroke="black" stroke-width="10" stroke-linecap="round" stroke-linejoin="round" fill="none"/>
<path d="M468.5 757.5L488 104M488 104L553.5 83L605 122.5V640.5L468.5 757.5L217.5 640.5L197.5 75L488 104Z" stroke="black" stroke-width="25" stroke-linecap="round" stroke-linejoin="round" fill="none"/>
<path d="M194.197 60.49C186.184 62.5901 181.39 70.789 183.49 78.8026C185.59 86.8163 193.789 91.6101 201.803 89.51L198 75L194.197 60.49ZM198 75L201.803 89.51L274.303 70.51L270.5 56L266.697 41.49L194.197 60.49L198 75Z" fill="black"/>
<path d="M559 81.5L448 68" stroke="black" stroke-width="20" stroke-linecap="round" stroke-linejoin="round" fill="none"/>
<path d="M531.5 104.5L517 707.5" stroke="black" stroke-width="10" stroke-linecap="round" stroke-linejoin="round" fill="none"/>
<path d="M304 38L393.5 45.5V75.5L304 66.5V38Z" stroke="black" stroke-width="3" stroke-linecap="round" stroke-linejoin="round" fill="none"/>
<path d="M318 128L303 126" stroke="black" stroke-width="10" stroke-linecap="round" stroke-linejoin="round" fill="none"/>
<path d="M432 84.5L442.5 32.5L279 18L270 72.5" stroke="black" stroke-width="20" stroke-linecap="round" stroke-linejoin="round" fill="none"/>
</svg>
