<svg width="1197" height="503" viewBox="0 0 1197 503" fill="none" xmlns="http://www.w3.org/2000/svg">
<g clip-path="url(#clip0_98_149)">
<g clip-path="url(#clip1_98_149)">
<mask id="mask0_98_149" style="mask-type:luminance" maskUnits="userSpaceOnUse" x="-126" y="-253" width="1536" height="1024">
<path d="M1410 -253H-126V771H1410V-253Z" fill="white"/>
<path d="M335.193 63.2852C337.233 64.7645 339.115 66.3299 341.002 68C341.838 68.7296 342.675 69.4592 343.537 70.2109C346.055 72.4435 348.533 74.7132 351.002 77C351.578 77.5105 352.154 78.0209 352.748 78.5469C354.127 79.8125 354.127 79.8125 356.002 82C356.002 86 356.002 86 354.064 88.25C352.379 89.8109 350.646 91.3096 348.912 92.8164C348.158 93.4751 347.404 94.1338 346.627 94.8125C345.918 95.4171 345.209 96.0217 344.478 96.6445C342.451 98.573 340.685 100.496 338.874 102.619C334.967 107.107 330.806 111.288 326.563 115.457C324.877 117.123 323.191 118.789 321.506 120.456C320.621 121.328 319.737 122.2 318.826 123.098C314.584 127.285 310.356 131.484 306.126 135.682C299.656 142.103 293.181 148.519 286.688 154.917C282.289 159.25 277.901 163.595 273.526 167.952C271.221 170.247 268.909 172.534 266.587 174.811C250.943 190.161 235.291 206.805 234.709 230.027C234.543 249.028 239.884 264.856 253.002 279C256.965 282.907 261.056 286.676 265.154 290.441C268.181 293.223 271.12 296.068 274.002 299C277.214 302.261 280.563 305.276 284.037 308.254C286.11 310.096 288.056 312.024 290.002 314C292.461 316.497 294.953 318.861 297.627 321.125C302.244 325.085 306.475 329.419 310.727 333.762C313.682 336.761 316.683 339.63 319.877 342.375C325.308 347.064 330.264 352.215 335.291 357.328C338.738 360.811 342.187 364.22 345.908 367.41C351.036 371.817 355.746 376.636 360.502 381.438C361.42 382.36 362.337 383.282 363.283 384.232C365.525 386.486 367.764 388.742 370.002 391C369.073 392.102 368.141 393.202 367.209 394.301C366.69 394.913 366.172 395.526 365.638 396.157C359.01 403.622 352.144 407.958 342.016 408.629C330.994 408.922 322.614 406.096 314.383 398.622C309.499 393.947 304.777 389.136 300.103 384.25C296.473 380.456 292.751 376.917 288.753 373.516C285.267 370.499 282.127 367.14 278.908 363.844C276.743 361.673 274.481 359.657 272.158 357.656C267.179 353.345 262.611 348.66 258.002 343.961C254.126 340.04 250.147 336.343 245.971 332.746C242.664 329.814 239.595 326.654 236.502 323.5C232.119 319.07 227.73 314.76 222.963 310.742C219.33 307.515 215.979 303.986 212.568 300.527C210.545 298.535 208.531 296.704 206.314 294.938C205.551 294.298 204.788 293.659 204.002 293C204.002 292.34 204.002 291.68 204.002 291C203.421 290.746 202.84 290.491 202.241 290.229C199.76 288.867 198.147 287.357 196.174 285.332C195.456 284.603 194.738 283.874 193.998 283.123C193.257 282.361 192.515 281.598 191.752 280.813C186.944 275.889 182.103 271.119 176.886 266.629C166.825 257.932 155.858 247.923 154.002 234C153.174 219.924 155.285 211.18 164.002 200C167.207 196.489 170.583 193.177 174.002 189.875C180.932 183.174 180.932 183.174 187.439 176.07C192.431 170.239 197.997 164.949 203.459 159.563C208.59 154.499 213.61 149.407 218.299 143.926C222.197 139.518 226.49 135.476 230.685 131.355C234.05 128.027 237.327 124.687 240.408 121.094C245.471 115.209 251.092 109.866 256.619 104.422C261.011 100.07 265.23 95.6669 269.255 90.9741C272.544 87.2573 276.098 83.8004 279.627 80.3125C280.364 79.5797 281.101 78.8468 281.861 78.0918C283.281 76.6813 284.702 75.2723 286.125 73.8652C287.684 72.3155 289.226 70.7478 290.764 69.1758C303.318 56.9721 319.9 54.3164 335.193 63.2852Z" fill="black"/>
<path d="M145.314 125.438C146.176 125.395 147.039 125.352 147.927 125.309C156.327 127.198 162.779 134.304 168.752 140.125C175.144 146.325 175.144 146.325 182.002 152C181.488 156.33 180.166 158.394 177.205 161.551C176.391 162.42 175.577 163.29 174.738 164.186C169.284 169.794 163.727 175.294 158.138 180.767C150.602 188.158 144.152 194.902 139.752 204.688C139.001 206.333 139.001 206.333 138.236 208.012C133.169 220.278 135.109 236.005 140.002 248C144.323 257.182 151.085 264.661 158.728 271.238C164.207 275.977 169.215 281.166 174.291 286.328C178.471 290.552 182.708 294.589 187.275 298.395C189.15 300.138 190.624 301.84 192.002 304C191.104 308.747 187.831 311.308 184.314 314.312C180.648 317.536 177.237 320.718 174.127 324.5C169.665 329.808 164.547 331.652 157.814 332.312C149.451 331.627 143.693 327.434 138.06 321.512C137.448 320.89 136.836 320.269 136.206 319.629C134.271 317.66 132.355 315.675 130.439 313.688C127.901 311.083 125.356 308.484 122.81 305.887C122.199 305.261 121.589 304.636 120.96 303.991C117.482 300.445 113.928 297.1 110.132 293.895C104.616 288.989 99.5138 283.612 94.314 278.375C93.0923 277.148 91.8703 275.922 90.648 274.695C88.4041 272.443 86.1616 270.19 83.9207 267.935C82.0323 266.035 80.1404 264.139 78.2462 262.245C76.8163 260.815 75.3917 259.38 73.9742 257.938C71.0325 254.954 68.1779 252.068 64.814 249.562C58.9693 244.237 55.6488 236.629 54.5601 228.844C54.1669 217.985 57.2993 208.979 64.6695 200.957C67.3533 198.205 70.1892 195.62 73.0015 193C74.1699 191.708 75.3185 190.397 76.439 189.062C79.898 185.003 83.6599 181.283 87.4759 177.563C90.2285 174.858 92.8278 172.082 95.3453 169.156C99.8518 163.946 104.774 159.179 109.685 154.355C113.765 150.32 117.649 146.196 121.394 141.848C123.697 139.2 126.103 136.691 128.564 134.188C129.452 133.274 130.34 132.36 131.255 131.418C135.566 127.623 139.536 125.566 145.314 125.438Z" fill="black"/>
<path d="M720.001 237C729.239 243.518 735.49 251.923 738.001 263C738.294 266.276 738.335 269.525 738.313 272.813C738.308 273.701 738.302 274.59 738.296 275.505C738.087 286.765 735.215 295.451 727.337 303.754C723.33 307.404 718.959 309.861 714.001 312C713.265 312.358 712.529 312.717 711.77 313.086C703.483 315.821 692.02 315.131 684.196 311.313C673.223 304.752 665.235 295.687 661.626 283.23C659.122 270.289 661.019 257.65 668.251 246.563C680.641 230.332 702.441 227.006 720.001 237Z" fill="black"/>
<path d="M447.999 164C463.558 163.674 480.558 163.433 493.499 173.437C498.988 179.064 501.572 184.47 502.312 192.312C501.661 199.99 499.823 206.672 493.999 212C486.744 216.398 480.682 218.125 472.202 218.133C470.915 218.134 469.627 218.135 468.3 218.137C467.636 218.135 466.971 218.132 466.287 218.13C464.242 218.125 462.197 218.13 460.152 218.137C458.228 218.135 458.228 218.135 456.265 218.133C455.087 218.132 453.909 218.13 452.696 218.129C449.999 218 449.999 218 448.999 217C448.839 214.534 448.74 212.094 448.683 209.625C448.662 208.868 448.641 208.11 448.62 207.33C448.577 205.713 448.536 204.095 448.497 202.477C448.438 200.066 448.373 197.654 448.306 195.242C448.029 184.826 447.947 174.419 447.999 164Z" fill="black"/>
<path d="M1085.83 239.73C1091.93 243.817 1096.94 248.208 1100 255C1100.5 257.97 1100.5 257.97 1101 261C1077.24 261 1053.48 261 1029 261C1030.7 250.785 1036.71 244.012 1045 238C1057.22 230.184 1074.08 232.552 1085.83 239.73Z" fill="black"/>
<path d="M1152.44 180.125C1156.72 183.261 1159.92 187.066 1162 192C1162.79 197.627 1162.2 202.199 1159 207C1156.81 208.875 1156.81 208.875 1155 210C1151.57 206.244 1150.43 201.765 1149 197C1149.47 196.566 1149.95 196.131 1150.44 195.684C1152.73 193.214 1152.93 191.321 1153 188C1151.54 185.694 1151.54 185.694 1149 184C1146.26 183.546 1143.98 183.308 1141.25 183.25C1138.86 183.168 1136.46 183.085 1134 183C1134 192.24 1134 201.48 1134 211C1135.65 211 1137.3 211 1139 211C1139 207.04 1139 203.08 1139 199C1144 199 1144 199 1145.69 200.5C1147.48 203.919 1148.18 207.226 1149 211C1150.65 211 1152.3 211 1154 211C1152.26 213.138 1151.25 213.936 1148.54 214.617C1142.55 215.17 1138.28 215.313 1133 212C1129.19 208.339 1125.52 204.253 1124.66 198.887C1124.53 191.513 1126.61 187.681 1131.56 182.125C1137.06 177.328 1145.8 177.954 1152.44 180.125Z" fill="black"/>
<path d="M1152.19 180.125C1156.69 183.129 1159.88 186.971 1162 192C1162.79 197.627 1162.2 202.199 1159 207C1156.81 208.875 1156.81 208.875 1155 210C1151.57 206.244 1150.44 201.765 1149 197C1149.48 196.566 1149.95 196.131 1150.44 195.684C1152.73 193.214 1152.93 191.321 1153 188C1150.58 184.912 1148.54 183.205 1144.62 182.684C1143.71 182.602 1142.81 182.521 1141.88 182.438C1140.96 182.354 1140.05 182.27 1139.12 182.184C1138.42 182.123 1137.72 182.062 1137 182C1139.57 176.867 1147.66 178.529 1152.19 180.125Z" fill="black"/>
<path d="M1131 183C1131.66 183 1132.32 183 1133 183C1133 191.91 1133 200.82 1133 210C1128.51 207.756 1126.71 205.589 1125 201C1123.85 194.509 1125.31 190.325 1129 185C1129.66 184.34 1130.32 183.68 1131 183Z" fill="black"/>
<path d="M1139 187C1145.15 186.902 1145.15 186.902 1147 187C1148 188 1148 188 1148.19 190.438C1148 193 1148 193 1146 195C1142.38 195.125 1142.38 195.125 1139 195C1139 192.36 1139 189.72 1139 187Z" fill="black"/>
<path d="M1139.31 179.313C1139.87 179.539 1140.43 179.766 1141 180C1140.01 180.33 1139.02 180.66 1138 181C1140.97 181.33 1143.94 181.66 1147 182C1147 182.33 1147 182.66 1147 183C1142.71 183 1138.42 183 1134 183C1134 186.63 1134 190.26 1134 194C1133.67 194 1133.34 194 1133 194C1132.67 190.04 1132.34 186.08 1132 182C1137 179 1137 179 1139.31 179.313Z" fill="black"/>
</mask>
<g mask="url(#mask0_98_149)">
<path d="M457.439 10.6875C459.041 10.6633 459.041 10.6633 460.675 10.6387C477.664 10.6283 492.822 18.4091 505.001 30C507.923 33.0224 510.724 36.1387 513.494 39.3008C515.859 41.9915 515.859 41.9915 518.384 43.8555C520.546 45.6266 522.07 47.1889 523.841 49.3047C529.301 55.6039 535.281 61.3944 541.189 67.2691C542.52 68.5968 543.851 69.9248 545.182 71.253C548.034 74.0988 550.888 76.943 553.743 79.7862C558.254 84.2788 562.761 88.7759 567.266 93.2737C580.075 106.058 592.889 118.836 605.708 131.61C612.798 138.676 619.884 145.745 626.967 152.818C631.449 157.294 635.936 161.765 640.427 166.234C643.209 169.005 645.988 171.78 648.765 174.556C650.058 175.847 651.353 177.136 652.65 178.424C654.412 180.174 656.169 181.93 657.923 183.688C658.444 184.202 658.964 184.716 659.501 185.246C663.001 188.772 663.001 188.772 663.001 191C660.76 192.37 658.51 193.721 656.251 195.063C655.617 195.452 654.983 195.842 654.329 196.244C649.614 199.019 649.614 199.019 647.147 198.941C643.895 197.515 641.68 195.086 639.223 192.594C638.374 191.75 638.374 191.75 637.507 190.889C635.638 189.028 633.781 187.157 631.923 185.285C630.629 183.991 629.334 182.696 628.039 181.403C625.328 178.691 622.622 175.975 619.919 173.254C616.448 169.761 612.967 166.278 609.481 162.799C606.807 160.129 604.139 157.454 601.472 154.777C600.19 153.491 598.906 152.206 597.62 150.922C595.829 149.132 594.045 147.334 592.262 145.535C591.726 145.002 591.19 144.468 590.638 143.919C587.001 140.229 587.001 140.229 587.001 138C586.421 137.746 585.841 137.492 585.244 137.23C579.921 134.31 575.837 129.07 572.001 124.438C569.952 121.988 567.824 119.925 565.376 117.875C561.836 114.869 558.706 111.58 555.595 108.142C548.946 100.871 542.065 93.8456 535.126 86.8516C534.172 85.8896 534.172 85.8896 533.199 84.9083C529.843 81.5254 526.483 78.146 523.12 74.7691C520.367 72.0025 517.622 69.2288 514.882 66.4487C511.534 63.0508 508.173 59.6656 504.804 56.2889C503.536 55.0151 502.273 53.7371 501.015 52.4545C488.647 39.8618 475.6 30.2691 457.251 29.8125C431.702 30.2694 415.995 50.8366 399.281 67.5901C396.549 70.3275 393.811 73.0595 391.074 75.791C389.321 77.544 387.569 79.2972 385.818 81.0508C385.006 81.8603 384.195 82.6697 383.359 83.5037C379.353 87.5259 375.576 91.5915 372.001 96C370.825 97.0773 369.618 98.1237 368.376 99.125C365.137 101.881 362.307 104.812 359.483 107.99C351.896 116.384 343.793 124.271 335.755 132.23C332.867 135.091 329.984 137.956 327.102 140.824C326.107 141.813 325.113 142.802 324.118 143.792C323.621 144.286 323.123 144.781 322.611 145.291C315.922 151.945 309.227 158.593 302.523 165.232C297.97 169.74 293.425 174.255 288.887 178.778C286.498 181.16 284.104 183.536 281.702 185.907C279.025 188.55 276.361 191.205 273.7 193.864C272.919 194.628 272.139 195.392 271.335 196.18C260.73 206.844 254.205 218.449 253.751 233.625C253.927 249.395 260.193 260.962 271.001 272C272.14 273.179 272.14 273.179 273.302 274.383C276.672 277.816 280.092 281.127 283.751 284.25C288.099 287.971 292.086 292.028 296.082 296.118C298.928 299.009 301.833 301.758 304.908 304.406C309.869 308.693 314.413 313.361 319.001 318.039C322.887 321.97 326.877 325.679 331.064 329.285C334.795 332.588 338.23 336.189 341.712 339.75C344.694 342.772 347.722 345.666 350.939 348.438C355.891 352.712 360.423 357.371 365.001 362.039C368.917 366.001 372.938 369.744 377.158 373.379C379.732 375.642 382.106 378.047 384.501 380.5C387.491 383.534 390.493 386.502 393.751 389.25C397.894 392.776 401.676 396.638 405.501 400.5C411.087 406.175 411.087 406.175 417.001 411.5C421.748 415.497 426.032 419.981 430.372 424.408C433.461 427.539 436.586 430.548 439.927 433.41C443.65 436.618 447.042 440.068 450.444 443.611C463.346 456.983 476.513 467.148 495.939 467.562C509.552 467.435 521.554 461.59 531.064 452.062C531.724 451.375 532.384 450.688 533.064 449.98C534.832 448.173 536.644 446.518 538.564 444.875C542.605 441.4 546.489 437.77 550.376 434.125C554.508 430.251 558.646 426.392 562.876 422.625C568.274 417.807 573.517 412.828 578.763 407.846C583.411 403.445 588.162 399.189 593.001 395C600.062 388.777 606.908 382.338 613.75 375.876C618.314 371.572 622.918 367.322 627.603 363.148C629.955 361.041 632.283 358.911 634.604 356.769C635.648 355.81 636.695 354.855 637.746 353.905C639.907 351.95 642.01 349.991 644.001 347.863C645.689 346.125 645.689 346.125 649.001 344C652.358 344.269 655.014 345.506 658.001 347C659.165 347.551 659.165 347.551 660.353 348.113C662.255 349.037 664.131 350.014 666.001 351C664.699 353.901 663.361 355.856 661.017 357.996C660.418 358.548 659.82 359.101 659.203 359.67C658.559 360.253 657.915 360.836 657.251 361.438C655.891 362.687 654.53 363.937 653.169 365.188C652.476 365.82 651.783 366.453 651.069 367.105C649.095 368.914 647.134 370.735 645.177 372.562C644.569 373.13 643.961 373.698 643.334 374.283C642.197 375.346 641.059 376.409 639.922 377.472C637.016 380.176 634.072 382.823 631.076 385.426C627.042 388.939 623.138 392.576 619.251 396.25C613.543 401.625 607.8 406.956 602.009 412.242C598.568 415.388 595.162 418.571 591.751 421.75C588.23 425.029 584.71 428.297 581.064 431.438C575.862 435.928 570.895 440.675 565.88 445.371C561.294 449.666 556.685 453.935 552.056 458.184C550.064 460.013 548.096 461.86 546.134 463.723C531.335 477.621 514.235 485.83 493.603 485.281C469.505 483.399 453.667 472.091 437.392 455.43C435.014 453.001 432.607 450.686 430.001 448.5C425.209 444.464 420.901 439.923 416.496 435.475C412.794 431.75 409.042 428.186 405.021 424.805C402.222 422.304 399.628 419.616 397.001 416.938C392.612 412.471 388.167 408.576 383.001 405C380.38 406.966 378.221 408.691 376.314 411.375C369.168 419.486 356.629 424.279 346.001 425C329.029 425.832 315.829 421.245 303.001 410C300.945 408.022 298.942 406.004 296.954 403.957C295.1 402.099 293.187 400.389 291.189 398.688C286.859 394.97 282.891 390.923 278.908 386.844C276.743 384.673 274.48 382.657 272.158 380.656C267.178 376.345 262.611 371.66 258.001 366.961C254.126 363.04 250.146 359.343 245.97 355.746C242.664 352.814 239.594 349.654 236.501 346.5C230.884 340.795 230.884 340.795 224.939 335.438C222.334 333.202 219.84 330.903 217.412 328.477C216.769 327.835 216.126 327.194 215.464 326.533C212.637 323.695 209.816 320.851 207.001 318C203.935 319.368 201.831 320.923 199.47 323.301C198.501 324.272 198.501 324.272 197.513 325.264C196.849 325.94 196.185 326.616 195.501 327.312C194.837 327.977 194.174 328.642 193.49 329.326C190.783 332.057 188.225 334.703 185.908 337.777C183.556 340.52 181.253 341.705 178.001 343.25C176.97 343.75 175.939 344.25 174.876 344.766C165.857 348.638 152.478 348.831 143.314 345.375C133.92 340.457 126.834 333.058 119.501 325.562C117.999 324.032 116.495 322.503 114.988 320.978C113.62 319.592 112.257 318.202 110.894 316.811C108.788 314.715 106.592 312.766 104.336 310.833C99.5351 306.67 95.0761 302.188 90.6041 297.678C89.0798 296.141 87.5521 294.607 86.0236 293.073C82.7842 289.823 79.5487 286.568 76.3139 283.312C72.5507 279.526 68.7859 275.74 65.0168 271.96C63.5186 270.455 62.0235 268.947 60.5285 267.44C59.6137 266.521 58.699 265.603 57.7565 264.657C56.9568 263.853 56.157 263.048 55.3331 262.218C52.9917 259.991 50.5237 258.017 48.0014 256C38.7495 244.479 35.6862 231.564 37.0014 217C37.6056 213.439 38.5849 210.318 40.0014 207C40.3571 206.143 40.7129 205.286 41.0795 204.402C44.9948 196.206 51.0635 190.605 57.5346 184.434C59.3623 182.647 61.0378 180.762 62.6889 178.813C66.0999 174.792 69.8424 171.145 73.5912 167.441C76.2699 164.728 78.7474 161.892 81.224 158.996C83.9511 155.933 86.8954 153.098 89.8139 150.219C91.7986 148.206 93.6623 146.146 95.5014 144C98.7537 140.206 102.259 136.724 105.818 133.219C107.793 131.211 109.624 129.152 111.439 127C119.368 117.844 128.084 109.911 140.595 108.762C154.528 108.406 165.24 113.486 175.318 122.875C176.74 124.243 178.155 125.618 179.564 127C184.787 132.094 190.045 136.774 196.001 141C196.717 140.212 197.432 139.425 198.169 138.613C204.084 132.136 210.094 125.795 216.371 119.667C219.121 116.963 221.723 114.199 224.232 111.27C229.562 105.105 235.464 99.4945 241.263 93.7774C245.813 89.2666 250.207 84.7157 254.374 79.8496C257.101 76.7501 260.053 73.8861 263.001 71C266.76 67.2896 270.462 63.5979 273.876 59.5625C283.074 48.8012 295.321 41.0302 309.646 39.6484C327.38 39.2466 341.852 44.5473 354.667 56.7864C355.633 57.7243 356.597 58.6645 357.559 59.6069C359.899 61.8668 362.326 64.021 364.751 66.1875C365.571 66.9236 366.391 67.6596 367.236 68.418C367.818 68.9401 368.401 69.4621 369.001 70C372.918 68.4397 375.05 65.9662 377.81 62.832C384.023 55.8906 390.523 49.2581 397.099 42.6619C399.072 40.6794 401.034 38.6865 402.995 36.6934C411.27 28.3489 419.447 20.9884 430.064 15.6875C430.983 15.217 431.902 14.7465 432.849 14.2617C440.946 11.0209 448.784 10.6615 457.439 10.6875Z" fill="#030303"/>
<path d="M410.002 127C480.55 126.647 480.55 126.647 506.002 138C507.004 138.44 508.007 138.879 509.041 139.332C522.417 145.87 532.347 158.129 537.377 172C539.083 177.704 539.811 183.063 540.002 189C540.038 189.652 540.074 190.305 540.112 190.977C540.961 206.702 538.604 220.695 528.002 233C527.367 233.767 526.733 234.534 526.08 235.324C515.465 247.076 501.167 252.189 485.606 253.148C479.736 253.353 473.872 253.277 468.002 253.188C466.244 253.172 464.486 253.159 462.728 253.147C458.486 253.114 454.244 253.062 450.002 253C450.032 253.81 450.062 254.62 450.093 255.455C450.981 279.975 451.119 304.465 451.002 329C447.696 329.015 444.39 329.024 441.084 329.031C440.16 329.035 439.236 329.04 438.285 329.044C430.155 329.058 422.105 328.642 414.002 328C413.045 323.926 412.819 320.054 412.72 315.875C412.702 315.138 412.684 314.401 412.666 313.642C412.606 311.095 412.553 308.547 412.502 306C412.482 305.091 412.462 304.183 412.441 303.247C411.919 279.232 411.702 255.212 411.44 231.193C411.18 207.354 410.873 183.519 410.306 159.685C410.05 148.787 409.95 137.901 410.002 127Z" fill="#020202"/>
<path d="M744.786 214.229C752.004 219.526 757.87 225.694 763.002 233C763.533 233.732 764.064 234.464 764.612 235.219C775.321 251.338 777.676 270.644 774.299 289.477C770.257 306.296 759.659 321.827 745.037 331.269C742.905 332.546 740.75 333.756 738.565 334.938C737.898 335.303 737.231 335.668 736.544 336.045C726.23 341.334 715.772 342.514 704.315 342.375C703.086 342.363 701.857 342.352 700.591 342.34C677.665 341.93 660.471 336.11 643.799 319.852C631.008 306.329 624.826 289.712 624.815 271.375C624.802 270.345 624.79 269.315 624.778 268.254C624.758 258.011 625.888 248.916 630.752 239.813C631.11 239.125 631.468 238.437 631.836 237.728C634.466 232.775 637.239 228.184 641.002 224C641.645 223.277 642.289 222.554 642.951 221.809C669.645 193.486 713.722 192.825 744.786 214.229Z" fill="#020202"/>
<path d="M1108.44 218.476C1124.73 231.232 1133.12 247.872 1137 268C1137 274.6 1137 281.2 1137 288C1101.03 288 1065.06 288 1028 288C1032.86 301.372 1037.75 309.215 1050.44 315.375C1059.52 318.73 1071.72 318.385 1080.79 315.109C1086.19 312.398 1090.7 308.902 1094.11 303.911C1096.46 301.086 1096.94 301.01 1100.87 300.319C1102.37 300.32 1103.87 300.353 1105.36 300.414C1106.55 300.427 1106.55 300.427 1107.76 300.44C1110.28 300.473 1112.8 300.548 1115.31 300.625C1117.02 300.655 1118.74 300.682 1120.45 300.707C1124.63 300.773 1128.82 300.876 1133 301C1130.92 311.978 1123.6 319.283 1116 327C1115.34 327.684 1114.68 328.369 1114 329.074C1108.25 334.588 1101.27 337.941 1094 341C1093.09 341.392 1093.09 341.392 1092.15 341.791C1082.48 345.753 1073.09 346.451 1062.69 346.5C1061.52 346.506 1060.35 346.513 1059.15 346.519C1048.38 346.361 1038.52 344.354 1028.94 339.375C1028.26 339.029 1027.59 338.682 1026.89 338.326C1010.79 329.764 999.156 315.372 992.562 298.437C990.616 291.523 990.612 284.588 990.562 277.437C990.552 276.302 990.542 275.166 990.531 273.996C990.723 255.5 998.004 239.156 1011 226C1037.52 202.024 1078.86 196.554 1108.44 218.476Z" fill="#030303"/>
<path d="M855 161C855 170.9 855 180.8 855 191C850.71 191.33 846.42 191.66 842 192C837.876 193.649 837.876 193.649 836 197C835.54 200.198 835.54 200.198 835.375 203.687C835.189 206.812 835.189 206.812 835 210C841.6 210 848.2 210 855 210C855.023 214.112 855.043 218.223 855.055 222.335C855.06 223.735 855.067 225.135 855.075 226.534C855.088 228.542 855.093 230.55 855.098 232.559C855.103 233.768 855.108 234.978 855.114 236.224C855 239 855 239 854 240C848.06 240 842.12 240 836 240C836 272.67 836 305.34 836 339C823.79 339 811.58 339 799 339C798.67 306 798.34 273 798 239C793.05 238.67 788.1 238.34 783 238C783 228.1 783 218.2 783 208C787.95 208 792.9 208 798 208C798.026 206.828 798.052 205.656 798.078 204.449C798.458 192.485 799.251 181.839 807.961 172.777C818.334 163.736 841.351 154.175 855 161Z" fill="#030303"/>
<path d="M937 161C945.621 160.937 954.202 161.104 962.813 161.5C964.808 161.589 966.804 161.678 968.8 161.767C971.4 161.884 971.4 161.884 974 162C974.078 185.269 973.869 208.533 973.596 231.8C973.562 234.719 973.529 237.639 973.496 240.558C973.118 273.708 972.623 306.854 972 340C959.79 340 947.58 340 935 340C934.753 280.335 935.4 220.644 937 161Z" fill="#030303"/>
<path d="M619 199C619 210.55 619 222.1 619 234C612.565 234.495 612.565 234.495 606 235C599.889 237.26 597.131 239.115 594 245C592.762 248.714 592.823 252.181 592.795 256.052C592.785 256.871 592.775 257.691 592.765 258.536C592.733 261.246 592.708 263.957 592.684 266.668C592.663 268.547 592.642 270.426 592.621 272.305C592.565 277.252 592.516 282.198 592.468 287.145C592.418 292.193 592.362 297.24 592.307 302.287C592.199 312.191 592.098 322.096 592 332C580.12 332 568.24 332 556 332C555.226 303.688 554.744 275.39 554.468 247.069C554.416 241.844 554.361 236.619 554.307 231.395C554.201 221.263 554.099 211.132 554 201C557.513 200.985 561.026 200.977 564.539 200.969C565.527 200.965 566.514 200.96 567.531 200.956C574.431 200.945 581.136 201.258 588 202C588.495 207.445 588.495 207.445 589 213C589.784 211.969 590.567 210.938 591.375 209.875C599.148 200.748 607.305 199 619 199Z" fill="#020202"/>
<path d="M873 210C885.54 210 898.08 210 911 210C911 252.57 911 295.14 911 339C898.46 339 885.92 339 873 339C873 296.43 873 253.86 873 210Z" fill="#020202"/>
<path d="M1152.71 175.836C1159.05 179.061 1163.74 184.227 1166 191C1166.74 197.979 1166.59 203.988 1162.77 210.024C1158.09 215.263 1151.36 218.768 1144.38 219.25C1137.62 219.114 1132.07 217.395 1127.13 212.688C1121.55 206.438 1120.43 201.453 1120.66 193.121C1121.47 185.727 1125.63 182.067 1131.1 177.383C1136.79 173.249 1146.27 173.849 1152.71 175.836Z" fill="#141414"/>
<path d="M908 163C913.235 168.76 915.259 172.795 915.148 180.535C914.795 186.395 911.934 189.791 908 194C901.276 198.875 893.024 198.827 885 198C879.67 196.262 874.85 193.078 871.812 188.289C869.563 181.952 869.845 174.586 872.562 168.5C873.367 167.675 874.171 166.85 875 166C875.509 165.469 876.018 164.938 876.543 164.391C885.102 156.165 898.468 155.795 908 163Z" fill="#050504"/>
<path d="M1134 183C1136.37 182.897 1138.74 182.794 1141.19 182.688C1141.93 182.642 1142.66 182.597 1143.42 182.55C1147.32 182.468 1148.89 182.914 1151.99 185.324C1154 188 1154 188 1153.94 191.125C1153 194 1153 194 1151 197C1150.34 197 1149.68 197 1149 197C1149.45 197.722 1149.91 198.444 1150.38 199.188C1152.8 203.376 1154 206.112 1154 211C1152.35 211 1150.7 211 1149 211C1148.78 210.301 1148.56 209.603 1148.34 208.883C1146.48 202.963 1146.48 202.963 1141.75 199.375C1140.84 199.251 1139.94 199.128 1139 199C1139 202.96 1139 206.92 1139 211C1137.35 211 1135.7 211 1134 211C1134 201.76 1134 192.52 1134 183Z" fill="#111111"/>
</g>
</g>
</g>
<defs>
<clipPath id="clip0_98_149">
<rect width="1197" height="503" fill="white"/>
</clipPath>
<clipPath id="clip1_98_149">
<rect width="1536" height="1024" fill="white" transform="translate(-126 -253)"/>
</clipPath>
</defs>
</svg>
